<svg xmlns="http://www.w3.org/2000/svg" viewBox="0 0 64 64">
    <path fill="currentColor" fill-rule="evenodd" d="M8 16A8 8 0 1 0 8 0a8 8 0 0 0 0 16Zm0-2A6 6 0 1 0 8 2a6 6 0 0 0 0 12Zm33.41-6 5.95-5.95L45.95.64 40 6.59 34.05.64l-1.41 1.41L38.59 8l-5.95 5.95 1.41 1.41L40 9.41l5.95 5.95 1.41-1.41L41.41 8ZM40 48a8 8 0 1 0 0-16 8 8 0 0 0 0 16Zm0-2a6 6 0 1 0 0-12 6 6 0 0 0 0 12ZM9.41 40l5.95-5.95-1.41-1.41L8 38.59l-5.95-5.95-1.41 1.41L6.59 40 .64 45.95l1.41 1.41L8 41.41l5.95 5.95 1.41-1.41L9.41 40Z"/>
</svg>